<svg xmlns="http://www.w3.org/2000/svg" width="448" height="448" viewBox="0 0 448 448">
  <!-- VERSIUNE 3: Solid NEGRU pentru contracte (pe fundal alb) - Original inversat -->
  <g>
    <path d="M 101.50 258.51 C118.00,242.23 132.60,228.15 133.94,227.22 C135.28,226.28 138.52,225.29 141.13,225.01 L 145.87 224.50 L 164.69 203.01 C175.03,191.19 184.18,181.40 185.00,181.26 C185.82,181.12 192.80,187.08 200.50,194.50 C208.20,201.93 214.77,207.89 215.11,207.75 C215.44,207.61 222.34,199.85 230.44,190.50 C238.53,181.15 248.77,169.34 253.19,164.25 C257.60,159.16 261.73,155.03 262.36,155.06 C262.99,155.10 275.49,169.16 290.14,186.31 C304.79,203.47 328.57,231.23 342.99,248.00 C381.14,292.37 378.19,288.83 375.29,286.87 C372.53,285.00 353.08,267.21 305.18,222.75 C284.59,203.64 267.35,188.00 266.87,188.00 C266.39,188.00 266.00,203.37 266.00,222.16 L 266.00 256.32 L 259.25 249.97 C255.54,246.48 247.96,239.21 242.40,233.81 C236.85,228.42 231.90,224.00 231.40,224.01 C230.91,224.01 228.91,225.48 226.98,227.26 C204.01,248.39 198.29,253.62 190.89,260.27 C186.15,264.52 181.98,268.00 181.63,268.00 C180.72,268.00 185.84,259.00 196.69,241.50 C201.81,233.25 206.00,225.75 206.00,224.84 C206.00,221.04 187.82,201.78 185.97,203.63 C185.39,204.21 180.89,211.61 175.96,220.09 C171.03,228.56 166.60,236.13 166.13,236.89 C165.40,238.07 164.56,238.04 160.64,236.70 L 156.01 235.12 L 150.75 245.27 C147.86,250.84 144.97,255.57 144.31,255.77 C143.57,255.99 142.67,253.84 141.92,249.97 C141.25,246.59 140.10,243.59 139.37,243.31 C138.63,243.03 127.78,249.97 115.26,258.74 C83.97,280.65 76.90,285.47 74.00,286.88 C72.62,287.55 85.00,274.78 101.50,258.51 Z" 
          fill="#000000"/>
  </g>
</svg>

